<svg width="33" height="33" viewBox="0 0 33 33" fill="none" xmlns="http://www.w3.org/2000/svg">
<g filter="url(#filter0_b_65_2164)">
<g clip-path="url(#clip0_65_2164)">
<mask id="path-1-inside-1_65_2164" fill="white">
<path d="M0.191895 2.19165C0.191895 1.08708 1.08733 0.19165 2.19189 0.19165H30.3393C31.4439 0.19165 32.3393 1.08708 32.3393 2.19165V30.3391C32.3393 31.4436 31.4439 32.3391 30.3393 32.3391H2.19189C1.08732 32.3391 0.191895 31.4436 0.191895 30.3391V2.19165Z"/>
</mask>
<g filter="url(#filter1_b_65_2164)">
<path d="M0.191895 2.38328C0.191895 1.17274 1.17323 0.191406 2.38377 0.191406H30.1474C31.358 0.191406 32.3393 1.17274 32.3393 2.38328V16.2651H0.191895V2.38328Z" fill="#343643"/>
<path d="M0.191895 2.38328C0.191895 1.17274 1.17323 0.191406 2.38377 0.191406H30.1474C31.358 0.191406 32.3393 1.17274 32.3393 2.38328V16.2651H0.191895V2.38328Z" fill="#333541" fill-opacity="0.71"/>
<path d="M0.191895 16.1689H32.3393V30.1471C32.3393 31.3576 31.358 32.3389 30.1474 32.3389H2.38377C1.17323 32.3389 0.191895 31.3576 0.191895 30.1471V16.1689Z" fill="#343643"/>
<path d="M0.191895 16.1689H32.3393V30.1471C32.3393 31.3576 31.358 32.3389 30.1474 32.3389H2.38377C1.17323 32.3389 0.191895 31.3576 0.191895 30.1471V16.1689Z" fill="#282833" fill-opacity="0.71"/>
</g>
<g filter="url(#filter2_df_65_2164)">
<ellipse cx="16.4484" cy="-3.19221" rx="12.2379" ry="13.5165" fill="#676890" fill-opacity="0.69" shape-rendering="crispEdges"/>
</g>
</g>
<path d="M0.191895 2.19165C0.191895 0.810939 1.31118 -0.30835 2.69189 -0.30835H29.8393C31.22 -0.30835 32.3393 0.810939 32.3393 2.19165C32.3393 1.36322 31.4439 0.69165 30.3393 0.69165H2.19189C1.08733 0.69165 0.191895 1.36322 0.191895 2.19165ZM32.3393 32.3391H0.191895H32.3393ZM0.191895 32.3391V0.19165V32.3391ZM32.3393 0.19165V32.3391V0.19165Z" fill="url(#paint0_linear_65_2164)" mask="url(#path-1-inside-1_65_2164)"/>
</g>
<defs>
<filter id="filter0_b_65_2164" x="-36.3393" y="-36.3395" width="105.21" height="105.21" filterUnits="userSpaceOnUse" color-interpolation-filters="sRGB">
<feFlood flood-opacity="0" result="BackgroundImageFix"/>
<feGaussianBlur in="BackgroundImageFix" stdDeviation="18.2656"/>
<feComposite in2="SourceAlpha" operator="in" result="effect1_backgroundBlur_65_2164"/>
<feBlend mode="normal" in="SourceGraphic" in2="effect1_backgroundBlur_65_2164" result="shape"/>
</filter>
<filter id="filter1_b_65_2164" x="-73.2358" y="-73.2363" width="179.003" height="179.003" filterUnits="userSpaceOnUse" color-interpolation-filters="sRGB">
<feFlood flood-opacity="0" result="BackgroundImageFix"/>
<feGaussianBlur in="BackgroundImageFix" stdDeviation="36.7138"/>
<feComposite in2="SourceAlpha" operator="in" result="effect1_backgroundBlur_65_2164"/>
<feBlend mode="normal" in="SourceGraphic" in2="effect1_backgroundBlur_65_2164" result="shape"/>
</filter>
<filter id="filter2_df_65_2164" x="-3.78955" y="-24.7087" width="40.4761" height="43.033" filterUnits="userSpaceOnUse" color-interpolation-filters="sRGB">
<feFlood flood-opacity="0" result="BackgroundImageFix"/>
<feColorMatrix in="SourceAlpha" type="matrix" values="0 0 0 0 0 0 0 0 0 0 0 0 0 0 0 0 0 0 127 0" result="hardAlpha"/>
<feOffset dy="4"/>
<feGaussianBlur stdDeviation="1.5"/>
<feComposite in2="hardAlpha" operator="out"/>
<feColorMatrix type="matrix" values="0 0 0 0 0.27451 0 0 0 0 0.278431 0 0 0 0 0.396078 0 0 0 0.69 0"/>
<feBlend mode="normal" in2="BackgroundImageFix" result="effect1_dropShadow_65_2164"/>
<feBlend mode="normal" in="SourceGraphic" in2="effect1_dropShadow_65_2164" result="shape"/>
<feGaussianBlur stdDeviation="4" result="effect2_foregroundBlur_65_2164"/>
</filter>
<linearGradient id="paint0_linear_65_2164" x1="0.191895" y1="16.2654" x2="32.3393" y2="16.2654" gradientUnits="userSpaceOnUse">
<stop stop-color="#373946"/>
<stop offset="0.5" stop-color="#CACAE6"/>
<stop offset="0.5" stop-color="#CACAE6"/>
<stop offset="0.5" stop-color="#CACAE6"/>
<stop offset="1" stop-color="#373946"/>
</linearGradient>
<clipPath id="clip0_65_2164">
<path d="M0.191895 2.19165C0.191895 1.08708 1.08733 0.19165 2.19189 0.19165H30.3393C31.4439 0.19165 32.3393 1.08708 32.3393 2.19165V30.3391C32.3393 31.4436 31.4439 32.3391 30.3393 32.3391H2.19189C1.08732 32.3391 0.191895 31.4436 0.191895 30.3391V2.19165Z" fill="white"/>
</clipPath>
</defs>
</svg>
